<svg width="549" height="521" viewBox="0 0 549 521">
  <g id="Rectangle_4" data-name="Rectangle 4" transform="translate(360)" fill="#6e00ff" stroke="#6e00ff" stroke-width="1">
    <rect width="189" height="181" rx="30" stroke="none"/>
    <rect x="0.5" y="0.5" width="188" height="180" rx="29.5" fill="none"/>
  </g>
  <g id="Rectangle_6" data-name="Rectangle 6" transform="translate(360 285)" fill="none" stroke="#6e00ff" stroke-width="15">
    <rect width="189" height="181" rx="30" stroke="none"/>
    <rect x="7.5" y="7.5" width="174" height="166" rx="22.5" fill="none"/>
  </g>
  <g id="Rectangle_5" data-name="Rectangle 5" transform="translate(189 144)" fill="none" stroke="#fff" stroke-width="15">
    <rect width="189" height="181" rx="30" stroke="none"/>
    <rect x="7.5" y="7.5" width="174" height="166" rx="22.5" fill="none"/>
  </g>
  <g id="Rectangle_7" data-name="Rectangle 7" transform="translate(0 340)" fill="none" stroke="#fff" stroke-width="15">
    <rect width="189" height="181" rx="30" stroke="none"/>
    <rect x="7.5" y="7.5" width="174" height="166" rx="22.5" fill="none"/>
  </g>
  <g id="Ellipse_2" data-name="Ellipse 2" transform="translate(421 196)" fill="#12d1fc" stroke="#12d1fc" stroke-width="1" opacity="0.35">
    <ellipse cx="37" cy="37.5" rx="37" ry="37.5" stroke="none"/>
    <ellipse cx="37" cy="37.5" rx="36.5" ry="37" fill="none"/>
  </g>
  <g id="Ellipse_3" data-name="Ellipse 3" transform="translate(247 376)" fill="#ff64cb" stroke="#f85ecd" stroke-width="1" opacity="0.64">
    <ellipse cx="37" cy="37.5" rx="37" ry="37.5" stroke="none"/>
    <ellipse cx="37" cy="37.5" rx="36.5" ry="37" fill="none"/>
  </g>
</svg>
